<svg width="123" height="106" viewBox="0 0 123 106" fill="none" xmlns="http://www.w3.org/2000/svg">
<path d="M27.6125 3.97845L0.668335 36.7359L27.6125 46.902L43.3299 8.49672L27.6125 3.97845Z" fill="#3CC383"/>
<path d="M43.3299 8.49672L27.6125 46.902H94.9729L79.2555 8.49672H43.3299Z" fill="#3CC383"/>
<path d="M27.6125 46.902L61.2927 104.51L94.9729 46.902H27.6125Z" fill="#3CC383"/>
<path d="M0.668335 36.7359L61.2927 104.51L27.6125 46.902L0.668335 36.7359Z" fill="#3CC383"/>
<path d="M61.2927 104.51L121.917 36.7359L94.9729 46.902L61.2927 104.51Z" fill="#3CC383"/>
<path d="M121.917 36.7359L94.9729 3.97845L79.2555 8.49672L94.9729 46.902L121.917 36.7359Z" fill="#3CC383"/>
<path d="M27.6125 3.97845L43.3299 8.49672H79.2555L94.9729 3.97845L61.2927 0.51001L27.6125 3.97845Z" fill="#3CC383"/>
<path d="M0.668335 36.7359L61.2927 104.51M0.668335 36.7359L27.6125 3.97845M0.668335 36.7359L27.6125 46.902M61.2927 104.51L27.6125 46.902M61.2927 104.51L121.917 36.7359M61.2927 104.51L94.9729 46.902M27.6125 3.97845L43.3299 8.49672M27.6125 3.97845L61.2927 0.51001L94.9729 3.97845M43.3299 8.49672L27.6125 46.902M43.3299 8.49672H79.2555M27.6125 46.902H94.9729M121.917 36.7359L94.9729 3.97845M121.917 36.7359L94.9729 46.902M94.9729 3.97845L79.2555 8.49672M79.2555 8.49672L94.9729 46.902" stroke="black" stroke-width="1.01463"/>
</svg>
