<svg width="123" height="106" viewBox="0 0 123 106" fill="none" xmlns="http://www.w3.org/2000/svg">
<path d="M27.6124 3.97845L0.668213 36.7359L27.6124 46.902L43.3298 8.49672L27.6124 3.97845Z" fill="url(#paint0_linear_743_3872)"/>
<path d="M43.3298 8.49672L27.6124 46.902H94.9728L79.2554 8.49672H43.3298Z" fill="url(#paint1_linear_743_3872)"/>
<path d="M27.6124 46.902L61.2926 104.51L94.9728 46.902H27.6124Z" fill="url(#paint2_linear_743_3872)"/>
<path d="M0.668213 36.7359L61.2926 104.51L27.6124 46.902L0.668213 36.7359Z" fill="url(#paint3_linear_743_3872)"/>
<path d="M61.2926 104.51L121.917 36.7359L94.9728 46.902L61.2926 104.51Z" fill="url(#paint4_linear_743_3872)"/>
<path d="M121.917 36.7359L94.9728 3.97845L79.2554 8.49672L94.9728 46.902L121.917 36.7359Z" fill="url(#paint5_linear_743_3872)"/>
<path d="M27.6124 3.97845L43.3298 8.49672H79.2554L94.9728 3.97845L61.2926 0.51001L27.6124 3.97845Z" fill="url(#paint6_linear_743_3872)"/>
<path d="M0.668213 36.7359L61.2926 104.51M0.668213 36.7359L27.6124 3.97845M0.668213 36.7359L27.6124 46.902M61.2926 104.51L27.6124 46.902M61.2926 104.51L121.917 36.7359M61.2926 104.51L94.9728 46.902M27.6124 3.97845L43.3298 8.49672M27.6124 3.97845L61.2926 0.51001L94.9728 3.97845M43.3298 8.49672L27.6124 46.902M43.3298 8.49672H79.2554M27.6124 46.902H94.9728M121.917 36.7359L94.9728 3.97845M121.917 36.7359L94.9728 46.902M94.9728 3.97845L79.2554 8.49672M79.2554 8.49672L94.9728 46.902" stroke="black" stroke-width="1.01463"/>
<defs>
<linearGradient id="paint0_linear_743_3872" x1="61.2926" y1="0.51001" x2="61.2926" y2="104.51" gradientUnits="userSpaceOnUse">
<stop stop-color="#1BC6FC"/>
<stop offset="1" stop-color="#1494BD"/>
</linearGradient>
<linearGradient id="paint1_linear_743_3872" x1="61.2926" y1="0.51001" x2="61.2926" y2="104.51" gradientUnits="userSpaceOnUse">
<stop stop-color="#1BC6FC"/>
<stop offset="1" stop-color="#1494BD"/>
</linearGradient>
<linearGradient id="paint2_linear_743_3872" x1="61.2926" y1="0.51001" x2="61.2926" y2="104.51" gradientUnits="userSpaceOnUse">
<stop stop-color="#1BC6FC"/>
<stop offset="1" stop-color="#1494BD"/>
</linearGradient>
<linearGradient id="paint3_linear_743_3872" x1="61.2926" y1="0.51001" x2="61.2926" y2="104.51" gradientUnits="userSpaceOnUse">
<stop stop-color="#1BC6FC"/>
<stop offset="1" stop-color="#1494BD"/>
</linearGradient>
<linearGradient id="paint4_linear_743_3872" x1="61.2926" y1="0.51001" x2="61.2926" y2="104.51" gradientUnits="userSpaceOnUse">
<stop stop-color="#1BC6FC"/>
<stop offset="1" stop-color="#1494BD"/>
</linearGradient>
<linearGradient id="paint5_linear_743_3872" x1="61.2926" y1="0.51001" x2="61.2926" y2="104.51" gradientUnits="userSpaceOnUse">
<stop stop-color="#1BC6FC"/>
<stop offset="1" stop-color="#1494BD"/>
</linearGradient>
<linearGradient id="paint6_linear_743_3872" x1="61.2926" y1="0.51001" x2="61.2926" y2="104.51" gradientUnits="userSpaceOnUse">
<stop stop-color="#1BC6FC"/>
<stop offset="1" stop-color="#1494BD"/>
</linearGradient>
</defs>
</svg>
